<?xml version="1.0" standalone="no"?>
<svg id="Frame98" width="1299" height="777" viewBox="0 0 1299 777" fill="none" xmlns="http://www.w3.org/2000/svg" style="max-width: 100%; max-height: 100%;">
<g clip-path="url(#clip0_1651_174)">
<rect width="1299" height="777" fill="white" stroke-dasharray="0,0,0,4152"><animate attributeType="XML" attributeName="stroke-dasharray" repeatCount="1" dur="8.333333333333334s" values="0,0,0,4152; 
          0,2076,2076,0; 
          4152,0,0,0" keyTimes="0; 0.5; 1" fill="freeze"></animate></rect>
<path d="M1299 0H0V777H1299V0Z" fill="black" stroke-dasharray="0,0,0,4152"><animate attributeType="XML" attributeName="stroke-dasharray" repeatCount="1" dur="8.333333333333334s" values="0,0,0,4152; 
          0,2076,2076,0; 
          4152,0,0,0" keyTimes="0; 0.5; 1" fill="freeze"></animate></path>
<path d="M1299 0H0V777H1299V0Z" fill="white" stroke-dasharray="0,0,0,4152"><animate attributeType="XML" attributeName="stroke-dasharray" repeatCount="1" dur="8.333333333333334s" values="0,0,0,4152; 
          0,2076,2076,0; 
          4152,0,0,0" keyTimes="0; 0.5; 1" fill="freeze"></animate></path>
<path d="M-11.8047 733.771V-8.64746L1299 -4.16991V360.4C1062.08 342.029 933.82 484.109 850.259 527.364C777.19 565.187 662.79 608.954 555.032 608.954C447.274 608.954 385.151 587.09 276.042 595.446C99.6436 608.954 22.1464 693.246 -11.8047 733.771Z" fill="#145DA0" stroke-dasharray="0,0,0,3825.8427734375"><animate attributeType="XML" attributeName="stroke-dasharray" repeatCount="1" dur="8.333333333333334s" values="0,0,0,3825.8427734375; 
          0,1912.92138671875,1912.92138671875,0; 
          3825.8427734375,0,0,0" keyTimes="0; 0.5; 1" fill="freeze"></animate></path>
<path d="M47 685C50.866 685 54 681.866 54 678C54 674.134 50.866 671 47 671C43.134 671 40 674.134 40 678C40 681.866 43.134 685 47 685Z" fill="white" stroke-dasharray="0,0,0,43.98877716064453"><animate attributeType="XML" attributeName="stroke-dasharray" repeatCount="1" dur="8.333333333333334s" values="0,0,0,43.98877716064453; 
          0,21.994388580322266,21.994388580322266,0; 
          43.98877716064453,0,0,0" keyTimes="0; 0.5; 1" fill="freeze"></animate></path>
<path d="M48.8047 678.334C48.8047 679.439 47.9093 680.334 46.8047 680.334C45.7001 680.334 44.8047 679.439 44.8047 678.334C44.8047 677.229 45.7001 676.334 46.8047 676.334C47.9093 676.334 48.8047 677.229 48.8047 678.334Z" stroke="#145DA0" stroke-width="4" stroke-dasharray="0,0,0,12.568826675415039"><animate attributeType="XML" attributeName="stroke-dasharray" repeatCount="1" dur="8.333333333333334s" values="0,0,0,12.568826675415039; 
          0,6.2844133377075195,6.2844133377075195,0; 
          12.568826675415039,0,0,0" keyTimes="0; 0.5; 1" fill="freeze"></animate></path>
<path d="M218 611C221.866 611 225 607.866 225 604C225 600.134 221.866 597 218 597C214.134 597 211 600.134 211 604C211 607.866 214.134 611 218 611Z" fill="white" stroke-dasharray="0,0,0,43.9887580871582"><animate attributeType="XML" attributeName="stroke-dasharray" repeatCount="1" dur="8.333333333333334s" values="0,0,0,43.9887580871582; 
          0,21.9943790435791,21.9943790435791,0; 
          43.9887580871582,0,0,0" keyTimes="0; 0.5; 1" fill="freeze"></animate></path>
<path d="M220.023 603.768C220.023 604.872 219.128 605.768 218.023 605.768C216.919 605.768 216.023 604.872 216.023 603.768C216.023 602.663 216.919 601.768 218.023 601.768C219.128 601.768 220.023 602.663 220.023 603.768Z" stroke="#145DA0" stroke-width="4" stroke-dasharray="0,0,0,12.568277359008789"><animate attributeType="XML" attributeName="stroke-dasharray" repeatCount="1" dur="8.333333333333334s" values="0,0,0,12.568277359008789; 
          0,6.2841386795043945,6.2841386795043945,0; 
          12.568277359008789,0,0,0" keyTimes="0; 0.5; 1" fill="freeze"></animate></path>
<path d="M862 528C865.866 528 869 524.866 869 521C869 517.134 865.866 514 862 514C858.134 514 855 517.134 855 521C855 524.866 858.134 528 862 528Z" fill="white" stroke-dasharray="0,0,0,43.988807678222656"><animate attributeType="XML" attributeName="stroke-dasharray" repeatCount="1" dur="8.333333333333334s" values="0,0,0,43.988807678222656; 
          0,21.994403839111328,21.994403839111328,0; 
          43.988807678222656,0,0,0" keyTimes="0; 0.5; 1" fill="freeze"></animate></path>
<path d="M864 521C864 522.105 863.105 523 862 523C860.895 523 860 522.105 860 521C860 519.895 860.895 519 862 519C863.105 519 864 519.895 864 521Z" stroke="#145DA0" stroke-width="4" stroke-dasharray="0,0,0,12.569157600402832"><animate attributeType="XML" attributeName="stroke-dasharray" repeatCount="1" dur="8.333333333333334s" values="0,0,0,12.569157600402832; 
          0,6.284578800201416,6.284578800201416,0; 
          12.569157600402832,0,0,0" keyTimes="0; 0.5; 1" fill="freeze"></animate></path>
<path d="M1053.59 409.604C1057.45 409.604 1060.59 406.47 1060.59 402.604C1060.59 398.738 1057.45 395.604 1053.59 395.604C1049.72 395.604 1046.59 398.738 1046.59 402.604C1046.59 406.47 1049.72 409.604 1053.59 409.604Z" fill="white" stroke-dasharray="0,0,0,43.98783874511719"><animate attributeType="XML" attributeName="stroke-dasharray" repeatCount="1" dur="8.333333333333334s" values="0,0,0,43.98783874511719; 
          0,21.993919372558594,21.993919372558594,0; 
          43.98783874511719,0,0,0" keyTimes="0; 0.5; 1" fill="freeze"></animate></path>
<path d="M1055.53 402.764C1055.53 403.868 1054.64 404.764 1053.53 404.764C1052.43 404.764 1051.53 403.868 1051.53 402.764C1051.53 401.659 1052.43 400.764 1053.53 400.764C1054.64 400.764 1055.53 401.659 1055.53 402.764Z" stroke="#145DA0" stroke-width="4" stroke-dasharray="0,0,0,12.568830490112305"><animate attributeType="XML" attributeName="stroke-dasharray" repeatCount="1" dur="8.333333333333334s" values="0,0,0,12.568830490112305; 
          0,6.284415245056152,6.284415245056152,0; 
          12.568830490112305,0,0,0" keyTimes="0; 0.5; 1" fill="freeze"></animate></path>
<path d="M1243 367C1246.87 367 1250 363.866 1250 360C1250 356.134 1246.87 353 1243 353C1239.13 353 1236 356.134 1236 360C1236 363.866 1239.13 367 1243 367Z" fill="white" stroke-dasharray="0,0,0,43.99248123168945"><animate attributeType="XML" attributeName="stroke-dasharray" repeatCount="1" dur="8.333333333333334s" values="0,0,0,43.99248123168945; 
          0,21.996240615844727,21.996240615844727,0; 
          43.99248123168945,0,0,0" keyTimes="0; 0.5; 1" fill="freeze"></animate></path>
<path d="M1245 360C1245 361.105 1244.1 362 1243 362C1241.9 362 1241 361.105 1241 360C1241 358.895 1241.9 358 1243 358C1244.1 358 1245 358.895 1245 360Z" stroke="#145DA0" stroke-width="4" stroke-dasharray="0,0,0,12.5649995803833"><animate attributeType="XML" attributeName="stroke-dasharray" repeatCount="1" dur="8.333333333333334s" values="0,0,0,12.5649995803833; 
          0,6.28249979019165,6.28249979019165,0; 
          12.5649995803833,0,0,0" keyTimes="0; 0.5; 1" fill="freeze"></animate></path>
<path d="M1298.24 83.2255C1135.86 73.4995 794.873 108.081 620.689 290.713C448.857 470.88 137.501 512.251 -8.88281 504.686" stroke="white" stroke-opacity="0.24" stroke-dasharray="0,0,0,1410.589111328125"><animate attributeType="XML" attributeName="stroke-dasharray" repeatCount="1" dur="8.333333333333334s" values="0,0,0,1410.589111328125; 
          0,705.2945556640625,705.2945556640625,0; 
          1410.589111328125,0,0,0" keyTimes="0; 0.5; 1" fill="freeze"></animate></path>
<path d="M1333.66 160.829C1175.05 133.582 830.832 130.762 621.579 292.464C415.152 451.984 98.8576 459.094 -44.375 435.721" stroke="white" stroke-opacity="0.24" stroke-dasharray="0,0,0,1439.7742919921875"><animate attributeType="XML" attributeName="stroke-dasharray" repeatCount="1" dur="8.333333333333334s" values="0,0,0,1439.7742919921875; 
          0,719.8871459960938,719.8871459960938,0; 
          1439.7742919921875,0,0,0" keyTimes="0; 0.5; 1" fill="freeze"></animate></path>
<path d="M1350.38 218.551C1196.98 178.389 855.387 147.183 622.571 290.588C392.899 432.056 77.526 413.021 -61.1953 377.979" stroke="white" stroke-opacity="0.24" stroke-dasharray="0,0,0,1453.9189453125"><animate attributeType="XML" attributeName="stroke-dasharray" repeatCount="1" dur="8.333333333333334s" values="0,0,0,1453.9189453125; 
          0,726.95947265625,726.95947265625,0; 
          1453.9189453125,0,0,0" keyTimes="0; 0.5; 1" fill="freeze"></animate></path>
</g>
<defs>
<clipPath id="clip0_1651_174">
<rect width="1299" height="777" fill="white" stroke-dasharray="0,0,0,4152"><animate attributeType="XML" attributeName="stroke-dasharray" repeatCount="1" dur="8.333333333333334s" values="0,0,0,4152; 
          0,2076,2076,0; 
          4152,0,0,0" keyTimes="0; 0.5; 1" fill="freeze"></animate></rect>
</clipPath>
</defs>
<setting>{"type":"direct","speed":6,"random":1,"shift":1,"size":1,"rupture":50}</setting></svg>