<svg width="1920" height="847" viewBox="0 0 1920 847" fill="none" xmlns="http://www.w3.org/2000/svg">
<g clip-path="url(#clip0_1686_833)">
<path d="M119 71.5001C77.87 71.5001 22.6667 83.6668 0 93.0001V846.5H1992.5V102.5C1980 92.5 1949.6 72.3 1928 71.5C1906.4 70.7 1894.5 77.3902 1874 85C1808 109.5 1724.7 117.4 1623.5 85C1497 44.5 1446.5 43 1417 43C1387.5 43 1360.5 47 1246 102.5C1131.5 158 1073.5 163 1010 161.5C946.5 160 907.5 143 790 102.5C672.5 62 632.5 55 594.5 58C556.5 61 497.5 95.5693 439.5 102.5C397.5 107.519 318.5 116 230.5 93.0001C160 74.5741 145.5 71.5001 119 71.5001Z" fill="#145DA0"/>
</g>
<defs>
<clipPath id="clip0_1686_833">
<rect width="1920" height="847" fill="white"/>
</clipPath>
</defs>
</svg>
