<?xml version="1.0" standalone="no"?>
<svg id="Frame98" width="1627" height="1232" viewBox="0 0 1627 1232" fill="none" xmlns="http://www.w3.org/2000/svg" style="max-width: 100%; max-height: 100%;">
<g clip-path="url(#clip0_1651_174)">
<path d="M-14.7891 1244.67V-14.668L1627 -7.07284V611.336C1330.26 580.173 1169.61 821.179 1064.95 894.55C973.429 958.709 830.142 1032.95 695.175 1032.95C560.208 1032.95 482.398 995.862 345.739 1010.04C124.8 1032.95 27.7348 1175.93 -14.7891 1244.67Z" fill="#145DA0" stroke-dasharray="0,0,0,5371.650390625"><animate attributeType="XML" attributeName="stroke-dasharray" repeatCount="1" dur="8.333333333333334s" values="0,0,0,5371.650390625; 
          0,2685.8251953125,2685.8251953125,0; 
          5371.650390625,0,0,0" keyTimes="0; 0.5; 1" fill="freeze"></animate></path>
<path d="M46 1170C50.4183 1170 54 1166.42 54 1162C54 1157.58 50.4183 1154 46 1154C41.5817 1154 38 1157.58 38 1162C38 1166.42 41.5817 1170 46 1170Z" fill="white" stroke-dasharray="0,0,0,50.27439498901367"><animate attributeType="XML" attributeName="stroke-dasharray" repeatCount="1" dur="8.333333333333334s" values="0,0,0,50.27439498901367; 
          0,25.137197494506836,25.137197494506836,0; 
          50.27439498901367,0,0,0" keyTimes="0; 0.5; 1" fill="freeze"></animate></path>
<path d="M49 1162C49 1163.66 47.6569 1165 46 1165C44.3431 1165 43 1163.66 43 1162C43 1160.34 44.3431 1159 46 1159C47.6569 1159 49 1160.34 49 1162Z" stroke="#145DA0" stroke-width="6" stroke-dasharray="0,0,0,18.85566520690918"><animate attributeType="XML" attributeName="stroke-dasharray" repeatCount="1" dur="8.333333333333334s" values="0,0,0,18.85566520690918; 
          0,9.42783260345459,9.42783260345459,0; 
          18.85566520690918,0,0,0" keyTimes="0; 0.5; 1" fill="freeze"></animate></path>
<path d="M243 1040C247.418 1040 251 1036.42 251 1032C251 1027.58 247.418 1024 243 1024C238.582 1024 235 1027.58 235 1032C235 1036.42 238.582 1040 243 1040Z" fill="white" stroke-dasharray="0,0,0,50.274085998535156"><animate attributeType="XML" attributeName="stroke-dasharray" repeatCount="1" dur="8.333333333333334s" values="0,0,0,50.274085998535156; 
          0,25.137042999267578,25.137042999267578,0; 
          50.274085998535156,0,0,0" keyTimes="0; 0.5; 1" fill="freeze"></animate></path>
<path d="M246 1032C246 1033.66 244.657 1035 243 1035C241.343 1035 240 1033.66 240 1032C240 1030.34 241.343 1029 243 1029C244.657 1029 246 1030.34 246 1032Z" stroke="#145DA0" stroke-width="6" stroke-dasharray="0,0,0,18.85572624206543"><animate attributeType="XML" attributeName="stroke-dasharray" repeatCount="1" dur="8.333333333333334s" values="0,0,0,18.85572624206543; 
          0,9.427863121032715,9.427863121032715,0; 
          18.85572624206543,0,0,0" keyTimes="0; 0.5; 1" fill="freeze"></animate></path>
<path d="M841 1016C845.418 1016 849 1012.42 849 1008C849 1003.58 845.418 1000 841 1000C836.582 1000 833 1003.58 833 1008C833 1012.42 836.582 1016 841 1016Z" fill="white" stroke-dasharray="0,0,0,50.274024963378906"><animate attributeType="XML" attributeName="stroke-dasharray" repeatCount="1" dur="8.333333333333334s" values="0,0,0,50.274024963378906; 
          0,25.137012481689453,25.137012481689453,0; 
          50.274024963378906,0,0,0" keyTimes="0; 0.5; 1" fill="freeze"></animate></path>
<path d="M844 1008C844 1009.66 842.657 1011 841 1011C839.343 1011 838 1009.66 838 1008C838 1006.34 839.343 1005 841 1005C842.657 1005 844 1006.34 844 1008Z" stroke="#145DA0" stroke-width="6" stroke-dasharray="0,0,0,18.855308532714844"><animate attributeType="XML" attributeName="stroke-dasharray" repeatCount="1" dur="8.333333333333334s" values="0,0,0,18.855308532714844; 
          0,9.427654266357422,9.427654266357422,0; 
          18.855308532714844,0,0,0" keyTimes="0; 0.5; 1" fill="freeze"></animate></path>
<path d="M1322 691C1326.42 691 1330 687.418 1330 683C1330 678.582 1326.42 675 1322 675C1317.58 675 1314 678.582 1314 683C1314 687.418 1317.58 691 1322 691Z" fill="white" stroke-dasharray="0,0,0,50.27406311035156"><animate attributeType="XML" attributeName="stroke-dasharray" repeatCount="1" dur="8.333333333333334s" values="0,0,0,50.27406311035156; 
          0,25.13703155517578,25.13703155517578,0; 
          50.27406311035156,0,0,0" keyTimes="0; 0.5; 1" fill="freeze"></animate></path>
<path d="M1325 683C1325 684.657 1323.66 686 1322 686C1320.34 686 1319 684.657 1319 683C1319 681.343 1320.34 680 1322 680C1323.66 680 1325 681.343 1325 683Z" stroke="#145DA0" stroke-width="6" stroke-dasharray="0,0,0,18.85573959350586"><animate attributeType="XML" attributeName="stroke-dasharray" repeatCount="1" dur="8.333333333333334s" values="0,0,0,18.85573959350586; 
          0,9.42786979675293,9.42786979675293,0; 
          18.85573959350586,0,0,0" keyTimes="0; 0.5; 1" fill="freeze"></animate></path>
<path d="M1535 619C1539.42 619 1543 615.418 1543 611C1543 606.582 1539.42 603 1535 603C1530.58 603 1527 606.582 1527 611C1527 615.418 1530.58 619 1535 619Z" fill="white" stroke-dasharray="0,0,0,50.27411651611328"><animate attributeType="XML" attributeName="stroke-dasharray" repeatCount="1" dur="8.333333333333334s" values="0,0,0,50.27411651611328; 
          0,25.13705825805664,25.13705825805664,0; 
          50.27411651611328,0,0,0" keyTimes="0; 0.5; 1" fill="freeze"></animate></path>
<path d="M1538 611C1538 612.657 1536.66 614 1535 614C1533.34 614 1532 612.657 1532 611C1532 609.343 1533.34 608 1535 608C1536.66 608 1538 609.343 1538 611Z" stroke="#145DA0" stroke-width="6" stroke-dasharray="0,0,0,18.85573959350586"><animate attributeType="XML" attributeName="stroke-dasharray" repeatCount="1" dur="8.333333333333334s" values="0,0,0,18.85573959350586; 
          0,9.42786979675293,9.42786979675293,0; 
          18.85573959350586,0,0,0" keyTimes="0; 0.5; 1" fill="freeze"></animate></path>
<path d="M1626.04 141.173C1422.67 124.675 995.581 183.335 777.415 493.127C562.195 798.738 172.221 868.915 -11.125 856.083" stroke="white" stroke-opacity="0.25" stroke-width="1.4" stroke-dasharray="0,0,0,1860.549072265625"><animate attributeType="XML" attributeName="stroke-dasharray" repeatCount="1" dur="8.333333333333334s" values="0,0,0,1860.549072265625; 
          0,930.2745361328125,930.2745361328125,0; 
          1860.549072265625,0,0,0" keyTimes="0; 0.5; 1" fill="freeze"></animate></path>
<path d="M1670.42 272.809C1471.76 226.591 1040.62 221.807 778.53 496.098C519.98 766.685 123.821 778.747 -55.5781 739.099" stroke="white" stroke-opacity="0.25" stroke-width="1.4" stroke-dasharray="0,0,0,1861.79833984375"><animate attributeType="XML" attributeName="stroke-dasharray" repeatCount="1" dur="8.333333333333334s" values="0,0,0,1861.79833984375; 
          0,930.899169921875,930.899169921875,0; 
          1861.79833984375,0,0,0" keyTimes="0; 0.5; 1" fill="freeze"></animate></path>
<path d="M1691.36 370.721C1499.22 302.596 1071.37 249.662 779.77 492.916C492.105 732.883 97.1003 700.595 -76.6484 641.153" stroke="white" stroke-opacity="0.25" stroke-width="1.4" stroke-dasharray="0,0,0,1862.405517578125"><animate attributeType="XML" attributeName="stroke-dasharray" repeatCount="1" dur="8.333333333333334s" values="0,0,0,1862.405517578125; 
          0,931.2027587890625,931.2027587890625,0; 
          1862.405517578125,0,0,0" keyTimes="0; 0.5; 1" fill="freeze"></animate></path>
</g>
<defs>
<clipPath id="clip0_1651_174">
<rect width="1627" height="1232" fill="white" stroke-dasharray="0,0,0,5718"><animate attributeType="XML" attributeName="stroke-dasharray" repeatCount="1" dur="8.333333333333334s" values="0,0,0,5718; 
          0,2859,2859,0; 
          5718,0,0,0" keyTimes="0; 0.5; 1" fill="freeze"></animate></rect>
</clipPath>
</defs>
<setting>{"type":"direct","speed":6,"random":1,"shift":1,"size":1,"rupture":50}</setting></svg>