<svg width="1920" height="1360" viewBox="0 0 1920 1360" fill="none" xmlns="http://www.w3.org/2000/svg">
<g clip-path="url(#clip0_1662_275)">
<rect width="1920" height="1360" fill="white"/>
<path d="M0 1342.09V575L1937.45 579.626V956.309C1587.27 937.328 1397.69 1084.13 1274.18 1128.82C1166.18 1167.9 997.091 1213.12 837.818 1213.12C678.546 1213.12 586.724 1190.53 425.455 1199.16C164.727 1213.12 50.1818 1300.21 0 1342.09Z" fill="#145DA0"/>
<rect x="-8" width="1936" height="595" fill="#145DA0"/>
<g clip-path="url(#clip1_1662_275)">
<mask id="mask0_1662_275" style="mask-type:luminance" maskUnits="userSpaceOnUse" x="-117" y="243" width="2172" height="705">
<path d="M2055 243H-117V948H2055V243Z" fill="white"/>
</mask>
<g mask="url(#mask0_1662_275)">
<path d="M2071.97 288.13C1800.29 292.455 1210.47 364.418 930.814 581.265C654.926 795.186 112.262 868.238 -132.586 873.46" stroke="white" stroke-opacity="0.22" stroke-width="1.6"/>
<path d="M2115.94 388.478C1849.73 369.48 1274.53 390.188 932.331 582.517C594.742 772.25 66.6588 801.949 -173.695 786.148" stroke="white" stroke-opacity="0.22" stroke-width="1.6"/>
<path d="M2151.09 499.551C1894.59 455.339 1323.43 420.986 934.15 578.853C550.122 734.586 22.801 713.632 -209.148 675.055" stroke="white" stroke-opacity="0.22" stroke-width="1.6"/>
</g>
</g>
<circle cx="1862" cy="955" r="14" fill="white"/>
<path d="M1867 955C1867 957.761 1864.76 960 1862 960C1859.24 960 1857 957.761 1857 955C1857 952.239 1859.24 950 1862 950C1864.76 950 1867 952.239 1867 955Z" stroke="#145DA0" stroke-width="10"/>
<circle cx="46" cy="1305" r="14" fill="white"/>
<path d="M51 1305C51 1307.76 48.7614 1310 46 1310C43.2386 1310 41 1307.76 41 1305C41 1302.24 43.2386 1300 46 1300C48.7614 1300 51 1302.24 51 1305Z" stroke="#145DA0" stroke-width="10"/>
<circle cx="216" cy="1231" r="14" fill="white"/>
<path d="M221 1231C221 1233.76 218.761 1236 216 1236C213.239 1236 211 1233.76 211 1231C211 1228.24 213.239 1226 216 1226C218.761 1226 221 1228.24 221 1231Z" stroke="#145DA0" stroke-width="10"/>
<circle cx="557" cy="1197" r="14" fill="white"/>
<path d="M562 1197C562 1199.76 559.761 1202 557 1202C554.239 1202 552 1199.76 552 1197C552 1194.24 554.239 1192 557 1192C559.761 1192 562 1194.24 562 1197Z" stroke="#145DA0" stroke-width="10"/>
<circle cx="1034" cy="1192" r="14" fill="white"/>
<path d="M1039 1192C1039 1194.76 1036.76 1197 1034 1197C1031.24 1197 1029 1194.76 1029 1192C1029 1189.24 1031.24 1187 1034 1187C1036.76 1187 1039 1189.24 1039 1192Z" stroke="#145DA0" stroke-width="10"/>
<circle cx="1313" cy="1112" r="14" fill="white"/>
<path d="M1318 1112C1318 1114.76 1315.76 1117 1313 1117C1310.24 1117 1308 1114.76 1308 1112C1308 1109.24 1310.24 1107 1313 1107C1315.76 1107 1318 1109.24 1318 1112Z" stroke="#145DA0" stroke-width="10"/>
<circle cx="1681" cy="973" r="14" fill="white"/>
<path d="M1686 973C1686 975.761 1683.76 978 1681 978C1678.24 978 1676 975.761 1676 973C1676 970.239 1678.24 968 1681 968C1683.76 968 1686 970.239 1686 973Z" stroke="#145DA0" stroke-width="10"/>
</g>
<defs>
<clipPath id="clip0_1662_275">
<rect width="1920" height="1360" fill="white"/>
</clipPath>
<clipPath id="clip1_1662_275">
<rect width="2172" height="705" fill="white" transform="translate(-117 243)"/>
</clipPath>
</defs>
</svg>
