<?xml version="1.0" standalone="no"?>
<svg id="Frame98" width="2138" height="1777" viewBox="0 0 2138 1777" fill="none" xmlns="http://www.w3.org/2000/svg" style="max-width: 100%; max-height: 100%;">
<g clip-path="url(#clip0_1651_174)">
<path d="M-9.4375 1786.65V131.725L2148 141.706V954.371C1758.06 913.42 1546.95 1230.13 1409.42 1326.55C1289.15 1410.86 1100.86 1508.42 923.508 1508.42C746.151 1508.42 643.904 1459.69 464.324 1478.31C173.993 1508.42 46.442 1696.32 -9.4375 1786.65Z" fill="#145DA0" stroke-dasharray="0,0,0,7058.86767578125"><animate attributeType="XML" attributeName="stroke-dasharray" repeatCount="1" dur="8.333333333333334s" values="0,0,0,7058.86767578125; 
          0,3529.433837890625,3529.433837890625,0; 
          7058.86767578125,0,0,0" keyTimes="0; 0.5; 1" fill="freeze"></animate></path>
<path d="M2049 962C2055.08 962 2060 957.075 2060 951C2060 944.925 2055.08 940 2049 940C2042.92 940 2038 944.925 2038 951C2038 957.075 2042.92 962 2049 962Z" fill="white" stroke-dasharray="0,0,0,69.12937927246094"><animate attributeType="XML" attributeName="stroke-dasharray" repeatCount="1" dur="8.333333333333334s" values="0,0,0,69.12937927246094; 
          0,34.56468963623047,34.56468963623047,0; 
          69.12937927246094,0,0,0" keyTimes="0; 0.5; 1" fill="freeze"></animate></path>
<path d="M2053 951C2053 953.209 2051.21 955 2049 955C2046.79 955 2045 953.209 2045 951C2045 948.791 2046.79 947 2049 947C2051.21 947 2053 948.791 2053 951Z" stroke="#145DA0" stroke-width="8" stroke-dasharray="0,0,0,25.137470245361328"><animate attributeType="XML" attributeName="stroke-dasharray" repeatCount="1" dur="8.333333333333334s" values="0,0,0,25.137470245361328; 
          0,12.568735122680664,12.568735122680664,0; 
          25.137470245361328,0,0,0" keyTimes="0; 0.5; 1" fill="freeze"></animate></path>
<path d="M1778 1039C1784.08 1039 1789 1034.08 1789 1028C1789 1021.92 1784.08 1017 1778 1017C1771.92 1017 1767 1021.92 1767 1028C1767 1034.08 1771.92 1039 1778 1039Z" fill="white" stroke-dasharray="0,0,0,69.13349914550781"><animate attributeType="XML" attributeName="stroke-dasharray" repeatCount="1" dur="8.333333333333334s" values="0,0,0,69.13349914550781; 
          0,34.566749572753906,34.566749572753906,0; 
          69.13349914550781,0,0,0" keyTimes="0; 0.5; 1" fill="freeze"></animate></path>
<path d="M1782 1028C1782 1030.21 1780.21 1032 1778 1032C1775.79 1032 1774 1030.21 1774 1028C1774 1025.79 1775.79 1024 1778 1024C1780.21 1024 1782 1025.79 1782 1028Z" stroke="#145DA0" stroke-width="8" stroke-dasharray="0,0,0,25.138315200805664"><animate attributeType="XML" attributeName="stroke-dasharray" repeatCount="1" dur="8.333333333333334s" values="0,0,0,25.138315200805664; 
          0,12.569157600402832,12.569157600402832,0; 
          25.138315200805664,0,0,0" keyTimes="0; 0.5; 1" fill="freeze"></animate></path>
<path d="M1408 1338C1414.08 1338 1419 1333.08 1419 1327C1419 1320.92 1414.08 1316 1408 1316C1401.92 1316 1397 1320.92 1397 1327C1397 1333.08 1401.92 1338 1408 1338Z" fill="white" stroke-dasharray="0,0,0,69.13343048095703"><animate attributeType="XML" attributeName="stroke-dasharray" repeatCount="1" dur="8.333333333333334s" values="0,0,0,69.13343048095703; 
          0,34.566715240478516,34.566715240478516,0; 
          69.13343048095703,0,0,0" keyTimes="0; 0.5; 1" fill="freeze"></animate></path>
<path d="M1412 1327C1412 1329.21 1410.21 1331 1408 1331C1405.79 1331 1404 1329.21 1404 1327C1404 1324.79 1405.79 1323 1408 1323C1410.21 1323 1412 1324.79 1412 1327Z" stroke="#145DA0" stroke-width="8" stroke-dasharray="0,0,0,25.138315200805664"><animate attributeType="XML" attributeName="stroke-dasharray" repeatCount="1" dur="8.333333333333334s" values="0,0,0,25.138315200805664; 
          0,12.569157600402832,12.569157600402832,0; 
          25.138315200805664,0,0,0" keyTimes="0; 0.5; 1" fill="freeze"></animate></path>
<path d="M921 1520C927.075 1520 932 1515.08 932 1509C932 1502.92 927.075 1498 921 1498C914.925 1498 910 1502.92 910 1509C910 1515.08 914.925 1520 921 1520Z" fill="white" stroke-dasharray="0,0,0,69.12919616699219"><animate attributeType="XML" attributeName="stroke-dasharray" repeatCount="1" dur="8.333333333333334s" values="0,0,0,69.12919616699219; 
          0,34.564598083496094,34.564598083496094,0; 
          69.12919616699219,0,0,0" keyTimes="0; 0.5; 1" fill="freeze"></animate></path>
<path d="M925 1509C925 1511.21 923.209 1513 921 1513C918.791 1513 917 1511.21 917 1509C917 1506.79 918.791 1505 921 1505C923.209 1505 925 1506.79 925 1509Z" stroke="#145DA0" stroke-width="8" stroke-dasharray="0,0,0,25.1375732421875"><animate attributeType="XML" attributeName="stroke-dasharray" repeatCount="1" dur="8.333333333333334s" values="0,0,0,25.1375732421875; 
          0,12.56878662109375,12.56878662109375,0; 
          25.1375732421875,0,0,0" keyTimes="0; 0.5; 1" fill="freeze"></animate></path>
<path d="M332 1515C338.075 1515 343 1510.08 343 1504C343 1497.92 338.075 1493 332 1493C325.925 1493 321 1497.92 321 1504C321 1510.08 325.925 1515 332 1515Z" fill="white" stroke-dasharray="0,0,0,69.12921142578125"><animate attributeType="XML" attributeName="stroke-dasharray" repeatCount="1" dur="8.333333333333334s" values="0,0,0,69.12921142578125; 
          0,34.564605712890625,34.564605712890625,0; 
          69.12921142578125,0,0,0" keyTimes="0; 0.5; 1" fill="freeze"></animate></path>
<path d="M336 1504C336 1506.21 334.209 1508 332 1508C329.791 1508 328 1506.21 328 1504C328 1501.79 329.791 1500 332 1500C334.209 1500 336 1501.79 336 1504Z" stroke="#145DA0" stroke-width="8" stroke-dasharray="0,0,0,25.137462615966797"><animate attributeType="XML" attributeName="stroke-dasharray" repeatCount="1" dur="8.333333333333334s" values="0,0,0,25.137462615966797; 
          0,12.568731307983398,12.568731307983398,0; 
          25.137462615966797,0,0,0" keyTimes="0; 0.5; 1" fill="freeze"></animate></path>
<path d="M93 1661C99.0751 1661 104 1656.08 104 1650C104 1643.92 99.0751 1639 93 1639C86.9249 1639 82 1643.92 82 1650C82 1656.08 86.9249 1661 93 1661Z" fill="white" stroke-dasharray="0,0,0,69.1292724609375"><animate attributeType="XML" attributeName="stroke-dasharray" repeatCount="1" dur="8.333333333333334s" values="0,0,0,69.1292724609375; 
          0,34.56463623046875,34.56463623046875,0; 
          69.1292724609375,0,0,0" keyTimes="0; 0.5; 1" fill="freeze"></animate></path>
<path d="M97 1650C97 1652.21 95.2091 1654 93 1654C90.7909 1654 89 1652.21 89 1650C89 1647.79 90.7909 1646 93 1646C95.2091 1646 97 1647.79 97 1650Z" stroke="#145DA0" stroke-width="8" stroke-dasharray="0,0,0,25.13758087158203"><animate attributeType="XML" attributeName="stroke-dasharray" repeatCount="1" dur="8.333333333333334s" values="0,0,0,25.13758087158203; 
          0,12.568790435791016,12.568790435791016,0; 
          25.13758087158203,0,0,0" keyTimes="0; 0.5; 1" fill="freeze"></animate></path>
<path d="M2146.75 336.519C1879.5 314.838 1318.27 391.925 1031.58 799.031C748.768 1200.64 236.313 1292.86 -4.61719 1276" stroke="white" stroke-opacity="0.3" stroke-width="2" stroke-dasharray="0,0,0,2444.9287109375"><animate attributeType="XML" attributeName="stroke-dasharray" repeatCount="1" dur="8.333333333333334s" values="0,0,0,2444.9287109375; 
          0,1222.46435546875,1222.46435546875,0; 
          2444.9287109375,0,0,0" keyTimes="0; 0.5; 1" fill="freeze"></animate></path>
<path d="M2205.06 509.505C1944.01 448.768 1377.46 442.482 1033.05 802.934C693.295 1158.52 172.713 1174.37 -63.0312 1122.27" stroke="white" stroke-opacity="0.3" stroke-width="2" stroke-dasharray="0,0,0,2446.555419921875"><animate attributeType="XML" attributeName="stroke-dasharray" repeatCount="1" dur="8.333333333333334s" values="0,0,0,2446.555419921875; 
          0,1223.2777099609375,1223.2777099609375,0; 
          2446.555419921875,0,0,0" keyTimes="0; 0.5; 1" fill="freeze"></animate></path>
<path d="M2232.57 638.174C1980.09 548.649 1417.87 479.087 1034.68 798.752C656.666 1114.1 137.6 1071.67 -90.7188 993.555" stroke="white" stroke-opacity="0.3" stroke-width="2" stroke-dasharray="0,0,0,2447.3427734375"><animate attributeType="XML" attributeName="stroke-dasharray" repeatCount="1" dur="8.333333333333334s" values="0,0,0,2447.3427734375; 
          0,1223.67138671875,1223.67138671875,0; 
          2447.3427734375,0,0,0" keyTimes="0; 0.5; 1" fill="freeze"></animate></path>
<rect x="-9" width="2157" height="277" fill="#145DA0" stroke-dasharray="0,0,0,4868"><animate attributeType="XML" attributeName="stroke-dasharray" repeatCount="1" dur="8.333333333333334s" values="0,0,0,4868; 
          0,2434,2434,0; 
          4868,0,0,0" keyTimes="0; 0.5; 1" fill="freeze"></animate></rect>
</g>
<defs>
<clipPath id="clip0_1651_174">
<rect width="2138" height="1777" fill="white" stroke-dasharray="0,0,0,7830"><animate attributeType="XML" attributeName="stroke-dasharray" repeatCount="1" dur="8.333333333333334s" values="0,0,0,7830; 
          0,3915,3915,0; 
          7830,0,0,0" keyTimes="0; 0.5; 1" fill="freeze"></animate></rect>
</clipPath>
</defs>
<setting>{"type":"direct","speed":6,"random":1,"shift":1,"size":1,"rupture":50}</setting></svg>