<svg width="1920" height="1360" viewBox="0 0 1920 1360" fill="none" xmlns="http://www.w3.org/2000/svg">
<g clip-path="url(#clip0_1662_275)">
<path d="M0 1344.08V583.708L1937.45 588.294V961.682C1587.27 942.867 1397.69 1088.38 1274.18 1132.68C1166.18 1171.42 997.091 1216.25 837.818 1216.25C678.546 1216.25 586.724 1193.85 425.455 1202.41C164.727 1216.25 50.1818 1302.58 0 1344.08Z" fill="#145DA0"/>
<rect x="-8" y="-16" width="1936" height="619.534" fill="#145DA0"/>
<mask id="mask0_1662_275" style="mask-type:luminance" maskUnits="userSpaceOnUse" x="-117" y="244" width="2172" height="700">
<path d="M2055 244.699H-117V943.533H2055V244.699Z" fill="white"/>
</mask>
<g mask="url(#mask0_1662_275)">
<path d="M2071.97 289.435C1800.29 293.722 1210.47 365.055 930.814 580.005C654.926 792.055 112.262 864.468 -132.586 869.645" stroke="white" stroke-opacity="0.22" stroke-width="1.6"/>
<path d="M2115.94 388.905C1849.73 370.074 1274.53 390.6 932.331 581.247C594.742 769.321 66.6588 798.76 -173.695 783.097" stroke="white" stroke-opacity="0.22" stroke-width="1.6"/>
<path d="M2151.09 499.007C1894.59 455.182 1323.43 421.129 934.15 577.615C550.122 731.986 22.801 711.215 -209.148 672.976" stroke="white" stroke-opacity="0.22" stroke-width="1.6"/>
</g>
<ellipse cx="1859" cy="961.376" rx="11" ry="10.9038" fill="white"/>
<ellipse cx="43" cy="1308.31" rx="11" ry="10.9038" fill="white"/>
<mask id="path-9-inside-1_1662_275" fill="white">
<ellipse cx="43" cy="1308.31" rx="8" ry="7.93003"/>
</mask>
<path d="M43 1308.31C43 1308.32 43.0001 1308.31 43.0027 1308.3C43.0052 1308.28 43.0089 1308.27 43.0132 1308.26C43.0213 1308.24 43.0276 1308.24 43.0249 1308.24C43.0222 1308.24 43.0198 1308.24 43.0207 1308.24C43.0218 1308.24 43.0225 1308.24 43.0219 1308.24C43.0218 1308.24 43.0153 1308.24 43 1308.24V1324.24C51.7702 1324.24 59 1317.18 59 1308.31H43ZM43 1308.24C42.9847 1308.24 42.9782 1308.24 42.9781 1308.24C42.9775 1308.24 42.9782 1308.24 42.9793 1308.24C42.9802 1308.24 42.9778 1308.24 42.9751 1308.24C42.9724 1308.24 42.9787 1308.24 42.9868 1308.26C42.9911 1308.27 42.9948 1308.28 42.9973 1308.3C42.9999 1308.31 43 1308.32 43 1308.31H27C27 1317.18 34.2298 1324.24 43 1324.24V1308.24ZM43 1308.31C43 1308.31 42.9999 1308.32 42.9973 1308.33C42.9948 1308.35 42.9911 1308.36 42.9868 1308.37C42.9787 1308.39 42.9724 1308.39 42.9751 1308.39C42.9778 1308.39 42.9802 1308.39 42.9793 1308.39C42.9782 1308.39 42.9775 1308.39 42.9781 1308.39C42.9782 1308.39 42.9847 1308.38 43 1308.38V1292.38C34.2298 1292.38 27 1299.45 27 1308.31H43ZM43 1308.38C43.0153 1308.38 43.0218 1308.39 43.0219 1308.39C43.0225 1308.39 43.0218 1308.39 43.0207 1308.39C43.0198 1308.39 43.0222 1308.39 43.0249 1308.39C43.0276 1308.39 43.0213 1308.39 43.0132 1308.37C43.0089 1308.36 43.0052 1308.35 43.0027 1308.33C43.0001 1308.32 43 1308.31 43 1308.31H59C59 1299.45 51.7702 1292.38 43 1292.38V1308.38Z" fill="#145DA0" mask="url(#path-9-inside-1_1662_275)"/>
<ellipse cx="213" cy="1234.96" rx="11" ry="10.9038" fill="white"/>
<ellipse cx="554" cy="1201.26" rx="11" ry="10.9038" fill="white"/>
<ellipse cx="1031" cy="1196.3" rx="11" ry="10.9038" fill="white"/>
<ellipse cx="1310" cy="1117" rx="11" ry="10.9038" fill="white"/>
<ellipse cx="1678" cy="979.218" rx="11" ry="10.9038" fill="white"/>
<mask id="path-16-inside-2_1662_275" fill="white">
<ellipse cx="213" cy="1234.96" rx="8" ry="7.93003"/>
</mask>
<path d="M213 1234.96C213 1234.96 213 1234.96 213.003 1234.94C213.005 1234.93 213.009 1234.92 213.013 1234.91C213.021 1234.89 213.028 1234.89 213.025 1234.89C213.022 1234.89 213.02 1234.89 213.021 1234.89C213.022 1234.89 213.023 1234.89 213.022 1234.89C213.022 1234.89 213.015 1234.89 213 1234.89V1250.89C221.77 1250.89 229 1243.83 229 1234.96H213ZM213 1234.89C212.985 1234.89 212.978 1234.89 212.978 1234.89C212.977 1234.89 212.978 1234.89 212.979 1234.89C212.98 1234.89 212.978 1234.89 212.975 1234.89C212.972 1234.89 212.979 1234.89 212.987 1234.91C212.991 1234.92 212.995 1234.93 212.997 1234.94C213 1234.96 213 1234.96 213 1234.96H197C197 1243.83 204.23 1250.89 213 1250.89V1234.89ZM213 1234.96C213 1234.96 213 1234.97 212.997 1234.98C212.995 1234.99 212.991 1235.01 212.987 1235.02C212.979 1235.03 212.972 1235.04 212.975 1235.04C212.978 1235.03 212.98 1235.03 212.979 1235.03C212.978 1235.03 212.977 1235.03 212.978 1235.03C212.978 1235.03 212.985 1235.03 213 1235.03V1219.03C204.23 1219.03 197 1226.1 197 1234.96H213ZM213 1235.03C213.015 1235.03 213.022 1235.03 213.022 1235.03C213.023 1235.03 213.022 1235.03 213.021 1235.03C213.02 1235.03 213.022 1235.03 213.025 1235.04C213.028 1235.04 213.021 1235.03 213.013 1235.02C213.009 1235.01 213.005 1234.99 213.003 1234.98C213 1234.97 213 1234.96 213 1234.96H229C229 1226.1 221.77 1219.03 213 1219.03V1235.03Z" fill="#145DA0" mask="url(#path-16-inside-2_1662_275)"/>
<mask id="path-18-inside-3_1662_275" fill="white">
<ellipse cx="554" cy="1201.26" rx="8" ry="7.93003"/>
</mask>
<path d="M554 1201.26C554 1201.26 554 1201.25 554.003 1201.24C554.005 1201.23 554.009 1201.22 554.013 1201.21C554.021 1201.19 554.028 1201.18 554.025 1201.18C554.022 1201.19 554.02 1201.19 554.021 1201.19C554.022 1201.19 554.023 1201.19 554.022 1201.19C554.022 1201.19 554.015 1201.19 554 1201.19V1217.19C562.77 1217.19 570 1210.12 570 1201.26H554ZM554 1201.19C553.985 1201.19 553.978 1201.19 553.978 1201.19C553.977 1201.19 553.978 1201.19 553.979 1201.19C553.98 1201.19 553.978 1201.19 553.975 1201.18C553.972 1201.18 553.979 1201.19 553.987 1201.21C553.991 1201.22 553.995 1201.23 553.997 1201.24C554 1201.25 554 1201.26 554 1201.26H538C538 1210.12 545.23 1217.19 554 1217.19V1201.19ZM554 1201.26C554 1201.26 554 1201.27 553.997 1201.28C553.995 1201.29 553.991 1201.3 553.987 1201.31C553.979 1201.33 553.972 1201.34 553.975 1201.33C553.978 1201.33 553.98 1201.33 553.979 1201.33C553.978 1201.33 553.977 1201.33 553.978 1201.33C553.978 1201.33 553.985 1201.33 554 1201.33V1185.33C545.23 1185.33 538 1192.4 538 1201.26H554ZM554 1201.33C554.015 1201.33 554.022 1201.33 554.022 1201.33C554.023 1201.33 554.022 1201.33 554.021 1201.33C554.02 1201.33 554.022 1201.33 554.025 1201.33C554.028 1201.34 554.021 1201.33 554.013 1201.31C554.009 1201.3 554.005 1201.29 554.003 1201.28C554 1201.27 554 1201.26 554 1201.26H570C570 1192.4 562.77 1185.33 554 1185.33V1201.33Z" fill="#145DA0" mask="url(#path-18-inside-3_1662_275)"/>
<mask id="path-20-inside-4_1662_275" fill="white">
<ellipse cx="1031" cy="1196.3" rx="8" ry="7.93003"/>
</mask>
<path d="M1031 1196.3C1031 1196.3 1031 1196.3 1031 1196.28C1031.01 1196.27 1031.01 1196.26 1031.01 1196.25C1031.02 1196.23 1031.03 1196.23 1031.02 1196.23C1031.02 1196.23 1031.02 1196.23 1031.02 1196.23C1031.02 1196.23 1031.02 1196.23 1031.02 1196.23C1031.02 1196.23 1031.02 1196.23 1031 1196.23V1212.23C1039.77 1212.23 1047 1205.17 1047 1196.3H1031ZM1031 1196.23C1030.98 1196.23 1030.98 1196.23 1030.98 1196.23C1030.98 1196.23 1030.98 1196.23 1030.98 1196.23C1030.98 1196.23 1030.98 1196.23 1030.98 1196.23C1030.97 1196.23 1030.98 1196.23 1030.99 1196.25C1030.99 1196.26 1030.99 1196.27 1031 1196.28C1031 1196.3 1031 1196.3 1031 1196.3H1015C1015 1205.17 1022.23 1212.23 1031 1212.23V1196.23ZM1031 1196.3C1031 1196.3 1031 1196.31 1031 1196.32C1030.99 1196.33 1030.99 1196.35 1030.99 1196.36C1030.98 1196.37 1030.97 1196.38 1030.98 1196.38C1030.98 1196.37 1030.98 1196.37 1030.98 1196.37C1030.98 1196.37 1030.98 1196.37 1030.98 1196.37C1030.98 1196.37 1030.98 1196.37 1031 1196.37V1180.37C1022.23 1180.37 1015 1187.44 1015 1196.3H1031ZM1031 1196.37C1031.02 1196.37 1031.02 1196.37 1031.02 1196.37C1031.02 1196.37 1031.02 1196.37 1031.02 1196.37C1031.02 1196.37 1031.02 1196.37 1031.02 1196.38C1031.03 1196.38 1031.02 1196.37 1031.01 1196.36C1031.01 1196.35 1031.01 1196.33 1031 1196.32C1031 1196.31 1031 1196.3 1031 1196.3H1047C1047 1187.44 1039.77 1180.37 1031 1180.37V1196.37Z" fill="#145DA0" mask="url(#path-20-inside-4_1662_275)"/>
<mask id="path-22-inside-5_1662_275" fill="white">
<ellipse cx="1310" cy="1117" rx="8" ry="7.93003"/>
</mask>
<path d="M1310 1117C1310 1117 1310 1117 1310 1116.98C1310.01 1116.97 1310.01 1116.96 1310.01 1116.95C1310.02 1116.93 1310.03 1116.93 1310.02 1116.93C1310.02 1116.93 1310.02 1116.93 1310.02 1116.93C1310.02 1116.93 1310.02 1116.93 1310.02 1116.93C1310.02 1116.93 1310.02 1116.93 1310 1116.93V1132.93C1318.77 1132.93 1326 1125.87 1326 1117H1310ZM1310 1116.93C1309.98 1116.93 1309.98 1116.93 1309.98 1116.93C1309.98 1116.93 1309.98 1116.93 1309.98 1116.93C1309.98 1116.93 1309.98 1116.93 1309.98 1116.93C1309.97 1116.93 1309.98 1116.93 1309.99 1116.95C1309.99 1116.96 1309.99 1116.97 1310 1116.98C1310 1117 1310 1117 1310 1117H1294C1294 1125.87 1301.23 1132.93 1310 1132.93V1116.93ZM1310 1117C1310 1117 1310 1117.01 1310 1117.02C1309.99 1117.03 1309.99 1117.05 1309.99 1117.06C1309.98 1117.08 1309.97 1117.08 1309.98 1117.08C1309.98 1117.07 1309.98 1117.07 1309.98 1117.07C1309.98 1117.07 1309.98 1117.07 1309.98 1117.07C1309.98 1117.07 1309.98 1117.07 1310 1117.07V1101.07C1301.23 1101.07 1294 1108.14 1294 1117H1310ZM1310 1117.07C1310.02 1117.07 1310.02 1117.07 1310.02 1117.07C1310.02 1117.07 1310.02 1117.07 1310.02 1117.07C1310.02 1117.07 1310.02 1117.07 1310.02 1117.08C1310.03 1117.08 1310.02 1117.08 1310.01 1117.06C1310.01 1117.05 1310.01 1117.03 1310 1117.02C1310 1117.01 1310 1117 1310 1117H1326C1326 1108.14 1318.77 1101.07 1310 1101.07V1117.07Z" fill="#145DA0" mask="url(#path-22-inside-5_1662_275)"/>
<mask id="path-24-inside-6_1662_275" fill="white">
<ellipse cx="1678" cy="979.219" rx="8" ry="7.93003"/>
</mask>
<path d="M1678 979.219C1678 979.22 1678 979.213 1678 979.2C1678.01 979.188 1678.01 979.176 1678.01 979.166C1678.02 979.147 1678.03 979.142 1678.02 979.145C1678.02 979.148 1678.02 979.149 1678.02 979.148C1678.02 979.148 1678.02 979.148 1678.02 979.148C1678.02 979.148 1678.02 979.149 1678 979.149V995.149C1686.77 995.149 1694 988.083 1694 979.219H1678ZM1678 979.149C1677.98 979.149 1677.98 979.148 1677.98 979.148C1677.98 979.148 1677.98 979.148 1677.98 979.148C1677.98 979.149 1677.98 979.148 1677.98 979.145C1677.97 979.142 1677.98 979.147 1677.99 979.166C1677.99 979.176 1677.99 979.188 1678 979.2C1678 979.213 1678 979.22 1678 979.219H1662C1662 988.083 1669.23 995.149 1678 995.149V979.149ZM1678 979.219C1678 979.218 1678 979.226 1678 979.238C1677.99 979.25 1677.99 979.262 1677.99 979.272C1677.98 979.291 1677.97 979.296 1677.98 979.293C1677.98 979.291 1677.98 979.29 1677.98 979.29C1677.98 979.29 1677.98 979.291 1677.98 979.291C1677.98 979.29 1677.98 979.289 1678 979.289V963.289C1669.23 963.289 1662 970.355 1662 979.219H1678ZM1678 979.289C1678.02 979.289 1678.02 979.29 1678.02 979.291C1678.02 979.291 1678.02 979.29 1678.02 979.29C1678.02 979.29 1678.02 979.291 1678.02 979.293C1678.03 979.296 1678.02 979.291 1678.01 979.272C1678.01 979.262 1678.01 979.25 1678 979.238C1678 979.226 1678 979.218 1678 979.219H1694C1694 970.355 1686.77 963.289 1678 963.289V979.289Z" fill="#145DA0" mask="url(#path-24-inside-6_1662_275)"/>
<mask id="path-26-inside-7_1662_275" fill="white">
<ellipse cx="1859" cy="961.376" rx="8" ry="7.93003"/>
</mask>
<path d="M1859 961.376C1859 961.377 1859 961.37 1859 961.357C1859.01 961.345 1859.01 961.333 1859.01 961.323C1859.02 961.304 1859.03 961.299 1859.02 961.302C1859.02 961.305 1859.02 961.306 1859.02 961.305C1859.02 961.305 1859.02 961.305 1859.02 961.305C1859.02 961.305 1859.02 961.306 1859 961.306V977.306C1867.77 977.306 1875 970.24 1875 961.376H1859ZM1859 961.306C1858.98 961.306 1858.98 961.305 1858.98 961.305C1858.98 961.305 1858.98 961.305 1858.98 961.305C1858.98 961.306 1858.98 961.305 1858.98 961.302C1858.97 961.299 1858.98 961.304 1858.99 961.323C1858.99 961.333 1858.99 961.345 1859 961.357C1859 961.37 1859 961.377 1859 961.376H1843C1843 970.24 1850.23 977.306 1859 977.306V961.306ZM1859 961.376C1859 961.375 1859 961.383 1859 961.396C1858.99 961.408 1858.99 961.419 1858.99 961.429C1858.98 961.448 1858.97 961.453 1858.98 961.451C1858.98 961.448 1858.98 961.447 1858.98 961.447C1858.98 961.448 1858.98 961.448 1858.98 961.448C1858.98 961.448 1858.98 961.446 1859 961.446V945.446C1850.23 945.446 1843 952.512 1843 961.376H1859ZM1859 961.446C1859.02 961.446 1859.02 961.448 1859.02 961.448C1859.02 961.448 1859.02 961.448 1859.02 961.447C1859.02 961.447 1859.02 961.448 1859.02 961.451C1859.03 961.453 1859.02 961.448 1859.01 961.429C1859.01 961.419 1859.01 961.408 1859 961.396C1859 961.383 1859 961.375 1859 961.376H1875C1875 952.512 1867.77 945.446 1859 945.446V961.446Z" fill="#145DA0" mask="url(#path-26-inside-7_1662_275)"/>
</g>
<defs>
<clipPath id="clip0_1662_275">
<rect width="1920" height="1360" fill="white"/>
</clipPath>
</defs>
</svg>
