<svg xmlns="http://www.w3.org/2000/svg" version="1.1" xmlns:xlink="http://www.w3.org/1999/xlink" xmlns:svgjs="http://svgjs.dev/svgjs" width="1490" height="450" preserveAspectRatio="none" viewBox="0 0 1490 450"><g mask="url(&quot;#SvgjsMask4307&quot;)" fill="none"><rect width="1490" height="450" x="0" y="0" fill="rgba(14, 42, 71, 1)"></rect><rect width="120.2" height="120.2" clip-path="url(&quot;#SvgjsClipPath4308&quot;)" x="659.53" y="87.89" fill="url(&quot;#SvgjsPattern4309&quot;)" transform="rotate(305.88, 719.63, 147.99)"></rect><rect width="224.4" height="224.4" clip-path="url(&quot;#SvgjsClipPath4310&quot;)" x="1167.75" y="220.91" fill="url(&quot;#SvgjsPattern4311&quot;)" transform="rotate(251.8, 1279.95, 333.11)"></rect><rect width="120" height="120" clip-path="url(&quot;#SvgjsClipPath4312&quot;)" x="1013.25" y="137.94" fill="url(&quot;#SvgjsPattern4313&quot;)" transform="rotate(109.93, 1073.25, 197.94)"></rect><rect width="192" height="192" clip-path="url(&quot;#SvgjsClipPath4314&quot;)" x="751.78" y="8.96" fill="url(&quot;#SvgjsPattern4315&quot;)" transform="rotate(164.07, 847.78, 104.96)"></rect><path d="M1294.57 203.07a5.6 5.6 0 1 0-1.91-11.04 5.6 5.6 0 1 0 1.91 11.04zM1291.85 187.3a5.6 5.6 0 1 0-1.91-11.04 5.6 5.6 0 1 0 1.91 11.04zM1289.13 171.53a5.6 5.6 0 1 0-1.91-11.03 5.6 5.6 0 1 0 1.91 11.03zM1286.41 155.77a5.6 5.6 0 1 0-1.91-11.04 5.6 5.6 0 1 0 1.91 11.04z" fill="rgba(84, 78, 185, 0.13)"></path><path d="M221.25 149.87a5.6 5.6 0 1 0-4.82 10.11 5.6 5.6 0 1 0 4.82-10.11zM214.36 164.31a5.6 5.6 0 1 0-4.82 10.11 5.6 5.6 0 1 0 4.82-10.11zM207.47 178.75a5.6 5.6 0 1 0-4.82 10.11 5.6 5.6 0 1 0 4.82-10.11zM200.58 193.19a5.6 5.6 0 1 0-4.82 10.11 5.6 5.6 0 1 0 4.82-10.11z" fill="rgba(16, 47, 79, 0.14)"></path><rect width="135.4" height="135.4" clip-path="url(&quot;#SvgjsClipPath4316&quot;)" x="1073.91" y="260.42" fill="url(&quot;#SvgjsPattern4317&quot;)" transform="rotate(205.8, 1141.61, 328.12)"></rect><rect width="264" height="264" clip-path="url(&quot;#SvgjsClipPath4318&quot;)" x="321.32" y="306.98" fill="url(&quot;#SvgjsPattern4319&quot;)" transform="rotate(126.55, 453.32, 438.98)"></rect><circle r="50.67162718095285" cx="1089.79" cy="279.66" stroke="rgba(84, 78, 185, 0.13)" stroke-width="2.7" stroke-dasharray="4, 4"></circle><path d="M510.97 74.96a5.6 5.6 0 1 0 10.82 2.92 5.6 5.6 0 1 0-10.82-2.92zM526.42 79.13a5.6 5.6 0 1 0 10.81 2.91 5.6 5.6 0 1 0-10.81-2.91zM541.87 83.29a5.6 5.6 0 1 0 10.81 2.92 5.6 5.6 0 1 0-10.81-2.92zM557.32 87.46a5.6 5.6 0 1 0 10.81 2.92 5.6 5.6 0 1 0-10.81-2.92zM475.91 82.07a5.6 5.6 0 1 0 10.81 2.92 5.6 5.6 0 1 0-10.81-2.92zM491.36 86.24a5.6 5.6 0 1 0 10.81 2.92 5.6 5.6 0 1 0-10.81-2.92zM506.81 90.41a5.6 5.6 0 1 0 10.81 2.91 5.6 5.6 0 1 0-10.81-2.91zM522.25 94.57a5.6 5.6 0 1 0 10.82 2.92 5.6 5.6 0 1 0-10.82-2.92z" fill="rgba(185, 165, 218, 0.17)"></path><circle r="37.5" cx="715.5" cy="430.58" fill="rgba(185, 165, 218, 0.17)"></circle><path d="M1109.56 190.91a5.6 5.6 0 1 0 10.63 3.55 5.6 5.6 0 1 0-10.63-3.55zM1124.74 195.98a5.6 5.6 0 1 0 10.62 3.55 5.6 5.6 0 1 0-10.62-3.55zM1139.92 201.05a5.6 5.6 0 1 0 10.62 3.54 5.6 5.6 0 1 0-10.62-3.54zM1155.09 206.11a5.6 5.6 0 1 0 10.62 3.55 5.6 5.6 0 1 0-10.62-3.55zM1074.14 195.95a5.6 5.6 0 1 0 10.63 3.54 5.6 5.6 0 1 0-10.63-3.54zM1089.32 201.01a5.6 5.6 0 1 0 10.62 3.55 5.6 5.6 0 1 0-10.62-3.55zM1104.49 206.08a5.6 5.6 0 1 0 10.63 3.55 5.6 5.6 0 1 0-10.63-3.55zM1119.67 211.15a5.6 5.6 0 1 0 10.62 3.55 5.6 5.6 0 1 0-10.62-3.55z" fill="rgba(185, 165, 218, 0.17)"></path><path d="M109.01 342.93a5.6 5.6 0 1 0 10.88 2.65 5.6 5.6 0 1 0-10.88-2.65zM124.56 346.71a5.6 5.6 0 1 0 10.88 2.64 5.6 5.6 0 1 0-10.88-2.64zM140.11 350.48a5.6 5.6 0 1 0 10.88 2.64 5.6 5.6 0 1 0-10.88-2.64zM155.65 354.25a5.6 5.6 0 1 0 10.89 2.64 5.6 5.6 0 1 0-10.89-2.64z" stroke="rgba(185, 165, 218, 0.17)" stroke-width="1" stroke-dasharray="2, 2"></path><rect width="132" height="132" clip-path="url(&quot;#SvgjsClipPath4320&quot;)" x="593.46" y="381.65" fill="url(&quot;#SvgjsPattern4321&quot;)" transform="rotate(335.62, 659.46, 447.65)"></rect><circle r="59.70328471660741" cx="1108.17" cy="107.03" stroke="rgba(16, 47, 79, 0.14)" stroke-width="1" stroke-dasharray="2, 2"></circle></g><defs><mask id="SvgjsMask4307"><rect width="1490" height="450" fill="#ffffff"></rect></mask><pattern x="0" y="0" width="12.02" height="12.02" patternUnits="userSpaceOnUse" id="SvgjsPattern4309"><path d="M6.01 1L6.01 11.02M1 6.01L11.02 6.01" stroke="rgba(16, 47, 79, 0.14)" fill="none" stroke-width="1"></path></pattern><clipPath id="SvgjsClipPath4308"><circle r="30.05" cx="719.63" cy="147.99"></circle></clipPath><pattern x="0" y="0" width="224.4" height="7.48" patternUnits="userSpaceOnUse" id="SvgjsPattern4311"><rect width="224.4" height="3.74" x="0" y="0" fill="rgba(185, 165, 218, 0.17)"></rect><rect width="224.4" height="3.74" x="0" y="3.74" fill="rgba(0, 0, 0, 0)"></rect></pattern><clipPath id="SvgjsClipPath4310"><circle r="56.1" cx="1279.95" cy="333.11"></circle></clipPath><pattern x="0" y="0" width="120" height="6" patternUnits="userSpaceOnUse" id="SvgjsPattern4313"><rect width="120" height="3" x="0" y="0" fill="rgba(16, 47, 79, 0.14)"></rect><rect width="120" height="3" x="0" y="3" fill="rgba(0, 0, 0, 0)"></rect></pattern><clipPath id="SvgjsClipPath4312"><circle r="30" cx="1073.25" cy="197.94"></circle></clipPath><pattern x="0" y="0" width="192" height="6" patternUnits="userSpaceOnUse" id="SvgjsPattern4315"><rect width="192" height="3" x="0" y="0" fill="rgba(185, 165, 218, 0.17)"></rect><rect width="192" height="3" x="0" y="3" fill="rgba(0, 0, 0, 0)"></rect></pattern><clipPath id="SvgjsClipPath4314"><circle r="48" cx="847.78" cy="104.96"></circle></clipPath><pattern x="0" y="0" width="13.54" height="13.54" patternUnits="userSpaceOnUse" id="SvgjsPattern4317"><path d="M6.77 1L6.77 12.54M1 6.77L12.54 6.77" stroke="rgba(16, 47, 79, 0.14)" fill="none" stroke-width="3.6"></path></pattern><clipPath id="SvgjsClipPath4316"><circle r="33.85" cx="1141.61" cy="328.12"></circle></clipPath><pattern x="0" y="0" width="6" height="6" patternUnits="userSpaceOnUse" id="SvgjsPattern4319"><path d="M3 1L3 5M1 3L5 3" stroke="rgba(16, 47, 79, 0.14)" fill="none" stroke-width="1.92"></path></pattern><clipPath id="SvgjsClipPath4318"><circle r="66" cx="453.32" cy="438.98"></circle></clipPath><pattern x="0" y="0" width="6" height="6" patternUnits="userSpaceOnUse" id="SvgjsPattern4321"><path d="M3 1L3 5M1 3L5 3" stroke="rgba(185, 165, 218, 0.17)" fill="none" stroke-width="1"></path></pattern><clipPath id="SvgjsClipPath4320"><circle r="33" cx="659.46" cy="447.65"></circle></clipPath></defs></svg>